<svg width="56" height="56" viewBox="0 0 56 56" fill="none" xmlns="http://www.w3.org/2000/svg">
<g clip-path="url(#clip0_617_386)">
<path d="M10 27L27.3243 11.1194C27.7066 10.769 28.2934 10.769 28.6757 11.1194L46 27" stroke="black" stroke-width="2" stroke-linecap="round"/>
<path d="M15 22.5V44.5C15 45.0523 15.4477 45.5 16 45.5H22.5C23.0523 45.5 23.5 45.0523 23.5 44.5V34C23.5 33.4477 23.9477 33 24.5 33H31.5C32.0523 33 32.5 33.4477 32.5 34V44.5C32.5 45.0523 32.9477 45.5 33.5 45.5H40C40.5523 45.5 41 45.0523 41 44.5V22.5" stroke="black" stroke-width="2" stroke-linecap="round"/>
</g>
<defs>
<clipPath id="clip0_617_386">
<rect width="38" height="38" fill="white" transform="translate(9 9)"/>
</clipPath>
</defs>
</svg>
